<svg width="14" height="16" viewBox="0 0 14 16" fill="none" xmlns="http://www.w3.org/2000/svg">
<path d="M8.70508 9.40534C8.70508 9.40534 8.80971 9.30071 9.01898 9.09145C9.22824 8.88218 9.33287 8.48179 9.33287 7.89028C9.33287 7.29876 9.12361 6.79374 8.70508 6.37521C8.28656 5.95668 7.78153 5.74742 7.19002 5.74742C6.5985 5.74742 6.09348 5.95668 5.67495 6.37521C5.25642 6.79374 5.04716 7.29876 5.04716 7.89028C5.04716 8.48179 5.25642 8.98682 5.67495 9.40534C6.09348 9.82387 6.5985 10.0331 7.19002 10.0331C7.78153 10.0331 8.28656 9.82387 8.70508 9.40534ZM9.52539 5.5549C9.52539 5.5549 9.68583 5.71533 10.0067 6.0362C10.3276 6.35707 10.488 6.9751 10.488 7.89028C10.488 8.80546 10.1671 9.58391 9.52539 10.2257C8.88365 10.8674 8.10519 11.1883 7.19002 11.1883C6.27484 11.1883 5.49638 10.8674 4.85464 10.2257C4.21289 9.58391 3.89202 8.80546 3.89202 7.89028C3.89202 6.9751 4.21289 6.19664 4.85464 5.5549C5.49638 4.91316 6.27484 4.59229 7.19002 4.59229C8.10519 4.59229 8.88365 4.91316 9.52539 5.5549ZM11.166 3.91427C11.166 3.91427 11.2037 3.95194 11.279 4.02727C11.3544 4.10261 11.392 4.2463 11.392 4.45836C11.392 4.67041 11.3167 4.85177 11.166 5.00244C11.0154 5.15311 10.834 5.22845 10.6219 5.22845C10.4099 5.22845 10.2285 5.15311 10.0779 5.00244C9.92718 4.85177 9.85185 4.67041 9.85185 4.45836C9.85185 4.2463 9.92718 4.06494 10.0779 3.91427C10.2285 3.7636 10.4099 3.68827 10.6219 3.68827C10.834 3.68827 11.0154 3.7636 11.166 3.91427ZM7.83036 2.61265C7.83036 2.61265 7.7334 2.61335 7.53948 2.61475C7.34557 2.61614 7.22908 2.61684 7.19002 2.61684C7.15095 2.61684 6.9375 2.61544 6.54967 2.61265C6.16183 2.60986 5.86747 2.60986 5.66658 2.61265C5.46568 2.61544 5.19643 2.62381 4.85882 2.63777C4.52121 2.65172 4.23382 2.67962 3.99666 2.72147C3.75949 2.76332 3.55999 2.81494 3.39816 2.87633C3.11914 2.98793 2.87361 3.14976 2.66156 3.36182C2.4495 3.57387 2.28767 3.81941 2.17606 4.09842C2.11468 4.26025 2.06306 4.45975 2.02121 4.69692C1.97936 4.93408 1.95146 5.22147 1.9375 5.55908C1.92355 5.89669 1.91518 6.16595 1.91239 6.36684C1.9096 6.56773 1.9096 6.8621 1.91239 7.24993C1.91518 7.63777 1.91658 7.85121 1.91658 7.89028C1.91658 7.92934 1.91518 8.14279 1.91239 8.53062C1.9096 8.91846 1.9096 9.21282 1.91239 9.41371C1.91518 9.61461 1.92355 9.88386 1.9375 10.2215C1.95146 10.5591 1.97936 10.8465 2.02121 11.0836C2.06306 11.3208 2.11468 11.5203 2.17606 11.6821C2.28767 11.9611 2.4495 12.2067 2.66156 12.4187C2.87361 12.6308 3.11914 12.7926 3.39816 12.9042C3.55999 12.9656 3.75949 13.0172 3.99666 13.0591C4.23382 13.1009 4.52121 13.1288 4.85882 13.1428C5.19643 13.1567 5.46568 13.1651 5.66658 13.1679C5.86747 13.1707 6.16183 13.1707 6.54967 13.1679C6.9375 13.1651 7.15095 13.1637 7.19002 13.1637C7.22908 13.1637 7.44253 13.1651 7.83036 13.1679C8.2182 13.1707 8.51256 13.1707 8.71345 13.1679C8.91435 13.1651 9.1836 13.1567 9.52121 13.1428C9.85882 13.1288 10.1462 13.1009 10.3834 13.0591C10.6205 13.0172 10.82 12.9656 10.9819 12.9042C11.2609 12.7926 11.5064 12.6308 11.7185 12.4187C11.9305 12.2067 12.0924 11.9611 12.204 11.6821C12.2654 11.5203 12.317 11.3208 12.3588 11.0836C12.4007 10.8465 12.4286 10.5591 12.4425 10.2215C12.4565 9.88386 12.4648 9.61461 12.4676 9.41371C12.4704 9.21282 12.4704 8.91846 12.4676 8.53062C12.4648 8.14279 12.4635 7.92934 12.4635 7.89028C12.4635 7.85121 12.4648 7.63777 12.4676 7.24993C12.4704 6.8621 12.4704 6.56773 12.4676 6.36684C12.4648 6.16595 12.4565 5.89669 12.4425 5.55908C12.4286 5.22147 12.4007 4.93408 12.3588 4.69692C12.317 4.45975 12.2654 4.26025 12.204 4.09842C12.0924 3.81941 11.9305 3.57387 11.7185 3.36182C11.5064 3.14976 11.2609 2.98793 10.9819 2.87633C10.82 2.81494 10.6205 2.76332 10.3834 2.72147C10.1462 2.67962 9.85882 2.65172 9.52121 2.63777C9.1836 2.62381 8.91435 2.61544 8.71345 2.61265C8.51256 2.60986 8.2182 2.60986 7.83036 2.61265ZM13.5767 5.23682C13.6046 5.72789 13.6186 6.61237 13.6186 7.89028C13.6186 9.16818 13.6046 10.0527 13.5767 10.5437C13.5209 11.7045 13.1749 12.6029 12.5388 13.239C11.9026 13.8752 11.0042 14.2212 9.84348 14.277C9.3524 14.3049 8.46792 14.3188 7.19002 14.3188C5.91211 14.3188 5.02763 14.3049 4.53656 14.277C3.37584 14.2212 2.4774 13.8752 1.84124 13.239C1.20508 12.6029 0.8591 11.7045 0.803297 10.5437C0.775395 10.0527 0.761444 9.16818 0.761444 7.89028C0.761444 6.61237 0.775395 5.72789 0.803297 5.23682C0.8591 4.0761 1.20508 3.17766 1.84124 2.5415C2.4774 1.90534 3.37584 1.55936 4.53656 1.50356C5.02763 1.47566 5.91211 1.46171 7.19002 1.46171C8.46792 1.46171 9.3524 1.47566 9.84348 1.50356C11.0042 1.55936 11.9026 1.90534 12.5388 2.5415C13.1749 3.17766 13.5209 4.0761 13.5767 5.23682Z" fill="white"/>
</svg>
