<svg width="95" height="21" viewBox="0 0 95 21" fill="none" xmlns="http://www.w3.org/2000/svg">
<path d="M13 8.88464C13 8.99923 12.9323 9.12423 12.7969 9.25964L9.96094 12.0253L10.6328 15.9315C10.638 15.968 10.6406 16.0201 10.6406 16.0878C10.6406 16.1971 10.6133 16.2896 10.5586 16.3651C10.5039 16.4406 10.4245 16.4784 10.3203 16.4784C10.2214 16.4784 10.1172 16.4471 10.0078 16.3846L6.5 14.5409L2.99219 16.3846C2.8776 16.4471 2.77344 16.4784 2.67969 16.4784C2.57031 16.4784 2.48828 16.4406 2.43359 16.3651C2.37891 16.2896 2.35156 16.1971 2.35156 16.0878C2.35156 16.0565 2.35677 16.0044 2.36719 15.9315L3.03906 12.0253L0.195312 9.25964C0.0651042 9.11902 0 8.99402 0 8.88464C0 8.69194 0.145833 8.57214 0.4375 8.52527L4.35938 7.95496L6.11719 4.40027C6.21615 4.18673 6.34375 4.07996 6.5 4.07996C6.65625 4.07996 6.78385 4.18673 6.88281 4.40027L8.64062 7.95496L12.5625 8.52527C12.8542 8.57214 13 8.69194 13 8.88464Z" fill="white"/>
<path d="M32.6 8.88464C32.6 8.99923 32.5323 9.12423 32.3969 9.25964L29.5609 12.0253L30.2328 15.9315C30.238 15.968 30.2406 16.0201 30.2406 16.0878C30.2406 16.1971 30.2133 16.2896 30.1586 16.3651C30.1039 16.4406 30.0245 16.4784 29.9203 16.4784C29.8214 16.4784 29.7172 16.4471 29.6078 16.3846L26.1 14.5409L22.5922 16.3846C22.4776 16.4471 22.3734 16.4784 22.2797 16.4784C22.1703 16.4784 22.0883 16.4406 22.0336 16.3651C21.9789 16.2896 21.9516 16.1971 21.9516 16.0878C21.9516 16.0565 21.9568 16.0044 21.9672 15.9315L22.6391 12.0253L19.7953 9.25964C19.6651 9.11902 19.6 8.99402 19.6 8.88464C19.6 8.69194 19.7458 8.57214 20.0375 8.52527L23.9594 7.95496L25.7172 4.40027C25.8162 4.18673 25.9438 4.07996 26.1 4.07996C26.2563 4.07996 26.3839 4.18673 26.4828 4.40027L28.2406 7.95496L32.1625 8.52527C32.4542 8.57214 32.6 8.69194 32.6 8.88464Z" fill="white"/>
<path d="M52.2 8.88464C52.2 8.99923 52.1323 9.12423 51.9969 9.25964L49.1609 12.0253L49.8328 15.9315C49.838 15.968 49.8406 16.0201 49.8406 16.0878C49.8406 16.1971 49.8133 16.2896 49.7586 16.3651C49.7039 16.4406 49.6245 16.4784 49.5203 16.4784C49.4214 16.4784 49.3172 16.4471 49.2078 16.3846L45.7 14.5409L42.1922 16.3846C42.0776 16.4471 41.9734 16.4784 41.8797 16.4784C41.7703 16.4784 41.6883 16.4406 41.6336 16.3651C41.5789 16.2896 41.5516 16.1971 41.5516 16.0878C41.5516 16.0565 41.5568 16.0044 41.5672 15.9315L42.2391 12.0253L39.3953 9.25964C39.2651 9.11902 39.2 8.99402 39.2 8.88464C39.2 8.69194 39.3458 8.57214 39.6375 8.52527L43.5594 7.95496L45.3172 4.40027C45.4162 4.18673 45.5438 4.07996 45.7 4.07996C45.8563 4.07996 45.9839 4.18673 46.0828 4.40027L47.8406 7.95496L51.7625 8.52527C52.0542 8.57214 52.2 8.69194 52.2 8.88464Z" fill="white"/>
<path d="M71.8 8.88464C71.8 8.99923 71.7323 9.12423 71.5969 9.25964L68.7609 12.0253L69.4328 15.9315C69.438 15.968 69.4406 16.0201 69.4406 16.0878C69.4406 16.1971 69.4133 16.2896 69.3586 16.3651C69.3039 16.4406 69.2245 16.4784 69.1203 16.4784C69.0213 16.4784 68.9172 16.4471 68.8078 16.3846L65.3 14.5409L61.7922 16.3846C61.6776 16.4471 61.5734 16.4784 61.4797 16.4784C61.3703 16.4784 61.2883 16.4406 61.2336 16.3651C61.1789 16.2896 61.1516 16.1971 61.1516 16.0878C61.1516 16.0565 61.1568 16.0044 61.1672 15.9315L61.8391 12.0253L58.9953 9.25964C58.8651 9.11902 58.8 8.99402 58.8 8.88464C58.8 8.69194 58.9458 8.57214 59.2375 8.52527L63.1594 7.95496L64.9172 4.40027C65.0161 4.18673 65.1437 4.07996 65.3 4.07996C65.4562 4.07996 65.5838 4.18673 65.6828 4.40027L67.4406 7.95496L71.3625 8.52527C71.6542 8.57214 71.8 8.69194 71.8 8.88464Z" fill="white"/>
<path d="M91.4 8.88464C91.4 8.99923 91.3323 9.12423 91.1969 9.25964L88.3609 12.0253L89.0328 15.9315C89.038 15.968 89.0406 16.0201 89.0406 16.0878C89.0406 16.1971 89.0133 16.2896 88.9586 16.3651C88.9039 16.4406 88.8245 16.4784 88.7203 16.4784C88.6213 16.4784 88.5172 16.4471 88.4078 16.3846L84.9 14.5409L81.3922 16.3846C81.2776 16.4471 81.1734 16.4784 81.0797 16.4784C80.9703 16.4784 80.8883 16.4406 80.8336 16.3651C80.7789 16.2896 80.7516 16.1971 80.7516 16.0878C80.7516 16.0565 80.7568 16.0044 80.7672 15.9315L81.4391 12.0253L78.5953 9.25964C78.4651 9.11902 78.4 8.99402 78.4 8.88464C78.4 8.69194 78.5458 8.57214 78.8375 8.52527L82.7594 7.95496L84.5172 4.40027C84.6161 4.18673 84.7437 4.07996 84.9 4.07996C85.0562 4.07996 85.1838 4.18673 85.2828 4.40027L87.0406 7.95496L90.9625 8.52527C91.2542 8.57214 91.4 8.69194 91.4 8.88464Z" fill="white"/>
</svg>
