<svg width="16" height="16" viewBox="0 0 16 16" fill="none" xmlns="http://www.w3.org/2000/svg">
<path d="M10.2526 11.3304L11.483 5.52965C11.5332 5.28411 11.5039 5.10833 11.3951 5.0023C11.2863 4.89628 11.1426 4.87674 10.9641 4.94371L3.73191 7.7311C3.57008 7.79248 3.45986 7.86224 3.40127 7.94036C3.34268 8.01849 3.3357 8.09242 3.38034 8.16218C3.42499 8.23193 3.51427 8.28634 3.6482 8.3254L5.49809 8.90297L9.79218 6.19929C9.90936 6.12116 9.99865 6.10442 10.06 6.14907C10.0991 6.17697 10.0879 6.21882 10.0266 6.27462L6.55278 9.41357L6.41885 11.3221C6.5472 11.3221 6.67276 11.2607 6.79552 11.1379L7.69954 10.2674L9.57454 11.6485C9.93168 11.8494 10.1577 11.7434 10.2526 11.3304ZM14.7057 4.97719C14.7057 4.97719 14.8047 5.20878 15.0028 5.67194C15.2009 6.13511 15.3 6.87451 15.3 7.89014C15.3 8.90576 15.1019 9.87674 14.7057 10.8031C14.3095 11.7294 13.7766 12.5274 13.1069 13.1971C12.4373 13.8667 11.6393 14.3996 10.7129 14.7958C9.78659 15.192 8.81561 15.3901 7.79999 15.3901C6.78436 15.3901 5.81338 15.192 4.88704 14.7958C3.9607 14.3996 3.16271 13.8667 2.49307 13.1971C1.82343 12.5274 1.2905 11.7294 0.894296 10.8031C0.49809 9.87674 0.299988 8.90576 0.299988 7.89014C0.299988 6.87451 0.49809 5.90353 0.894296 4.97719C1.2905 4.05085 1.82343 3.25286 2.49307 2.58322C3.16271 1.91357 3.9607 1.38065 4.88704 0.984446C5.81338 0.58824 6.78436 0.390137 7.79999 0.390137C8.81561 0.390137 9.78659 0.58824 10.7129 0.984446C11.6393 1.38065 12.4373 1.91357 13.1069 2.58322C13.7766 3.25286 14.3095 4.05085 14.7057 4.97719Z" fill="white"/>
</svg>
