<svg width="15" height="16" viewBox="0 0 15 16" fill="none" xmlns="http://www.w3.org/2000/svg">
<path d="M14.196 3.80511C13.8221 4.35198 13.3701 4.81794 12.84 5.20299C12.8455 5.28111 12.8483 5.3983 12.8483 5.55455C12.8483 6.27999 12.7423 7.00405 12.5303 7.7267C12.3182 8.44936 11.9959 9.14272 11.5635 9.80678C11.131 10.4708 10.6162 11.0582 10.0191 11.5688C9.422 12.0794 8.70213 12.4867 7.8595 12.7909C7.01686 13.095 6.11564 13.2471 5.15581 13.2471C3.64354 13.2471 2.25961 12.8425 1.00403 12.0333C1.19934 12.0557 1.41697 12.0668 1.65693 12.0668C2.91251 12.0668 4.03137 11.6818 5.01351 10.9117C4.42758 10.9005 3.90302 10.7206 3.43985 10.3718C2.97668 10.023 2.6586 9.57799 2.48561 9.03669C2.66976 9.06459 2.83997 9.07854 2.99622 9.07854C3.23617 9.07854 3.47334 9.04785 3.70771 8.98647C3.08271 8.85812 2.56513 8.54701 2.15498 8.05315C1.74482 7.55929 1.53974 6.98591 1.53974 6.33301V6.29953C1.91921 6.51158 2.32657 6.62598 2.76184 6.64272C2.39354 6.39718 2.10057 6.07631 1.88293 5.68011C1.6653 5.2839 1.55648 4.85421 1.55648 4.39104C1.55648 3.89997 1.67925 3.44517 1.92479 3.02665C2.60001 3.85812 3.42172 4.52358 4.38991 5.02302C5.3581 5.52246 6.39465 5.80008 7.49956 5.85589C7.45492 5.64383 7.4326 5.43736 7.4326 5.23647C7.4326 4.4887 7.69627 3.85114 8.22362 3.3238C8.75096 2.79646 9.38851 2.53279 10.1363 2.53279C10.9175 2.53279 11.576 2.81738 12.1117 3.38658C12.72 3.26939 13.292 3.05176 13.8277 2.73368C13.6212 3.37542 13.225 3.87207 12.6391 4.22363C13.158 4.16783 13.677 4.02832 14.196 3.80511Z" fill="white"/>
</svg>
